<?xml version="1.0" standalone="no"?><!DOCTYPE svg PUBLIC "-//W3C//DTD SVG 1.1//EN" "http://www.w3.org/Graphics/SVG/1.1/DTD/svg11.dtd"><svg t="1611836302440" class="icon" viewBox="0 0 1024 1024" version="1.1" xmlns="http://www.w3.org/2000/svg" p-id="3109" xmlns:xlink="http://www.w3.org/1999/xlink" width="200" height="200"><defs><style type="text/css"></style></defs><path d="M992 588.7744c0 14.08-11.52 25.6-25.6 25.6l-140.8 0 0 140.8c0 14.08-11.52 25.6-25.6 25.6s-25.6-11.52-25.6-25.6l0-140.8-140.8 0c-14.08 0-25.6-11.52-25.6-25.6 0-14.08 11.52-25.6 25.6-25.6l140.8 0 0-140.8c0-14.08 11.52-25.6 25.6-25.6s25.6 11.52 25.6 25.6l0 140.8 140.8 0C980.48 563.1744 992 574.6944 992 588.7744zM825.5872 878.144 825.5872 883.2c0 56.32-46.08 102.4-102.4 102.4L134.4 985.6c-56.32 0-102.4-46.08-102.4-102.4L32 448l0-51.1744L32 396.8l0.0256 0L390.4 38.4384 390.4 38.4l0.0384 0L441.6 38.4l281.5872 0c56.32 0 102.4 46.08 102.4 102.4l0 174.1312c0 14.144-11.456 25.6-25.6 25.6s-25.6-11.456-25.6-25.6L774.3872 140.8c0-28.2752-22.9248-51.2-51.2-51.2L441.6 89.6l0 307.2c0 28.2752-22.9248 51.2-51.2 51.2l-307.2 0L83.2 883.2c0 28.2752 22.9248 51.2 51.2 51.2l588.7872 0c28.2752 0 51.2-22.9248 51.2-51.2l0-5.056c0-14.144 11.456-25.6 25.6-25.6S825.5872 864 825.5872 878.144zM108.8256 396.8 364.8 396.8c14.144 0 25.6-11.456 25.6-25.6L390.4 115.2384 108.8256 396.8z" p-id="3110" data-spm-anchor-id="a313x.7781069.0.i20" class="selected" fill="#ffffff"></path></svg>