<?xml version="1.0" standalone="no"?><!DOCTYPE svg PUBLIC "-//W3C//DTD SVG 1.1//EN" "http://www.w3.org/Graphics/SVG/1.1/DTD/svg11.dtd"><svg t="1611836222178" class="icon" viewBox="0 0 1024 1024" version="1.1" xmlns="http://www.w3.org/2000/svg" p-id="2266" xmlns:xlink="http://www.w3.org/1999/xlink" width="200" height="200"><defs><style type="text/css"></style></defs><path d="M569.6 998.4 172.8 998.4c-51.2 0-89.6-38.4-89.6-89.6L83.2 108.8c0-51.2 38.4-89.6 89.6-89.6l672 0c51.2 0 89.6 38.4 89.6 89.6L934.4 640c0 12.8-12.8 25.6-25.6 25.6s-25.6-12.8-25.6-25.6L883.2 108.8c0-19.2-19.2-38.4-38.4-38.4L172.8 70.4c-19.2 0-38.4 19.2-38.4 38.4l0 806.4c0 19.2 19.2 38.4 38.4 38.4l390.4 0c12.8 0 25.6 12.8 25.6 25.6S582.4 998.4 569.6 998.4zM588.8 742.4l-320 0c-12.8 0-25.6-12.8-25.6-25.6l0 0c0-12.8 12.8-25.6 25.6-25.6l320 0c12.8 0 25.6 12.8 25.6 25.6l0 0C608 729.6 601.6 742.4 588.8 742.4zM748.8 512 262.4 512C249.6 512 236.8 499.2 236.8 486.4l0 0c0-12.8 12.8-25.6 25.6-25.6l486.4 0c12.8 0 25.6 12.8 25.6 25.6l0 0C774.4 499.2 761.6 512 748.8 512zM755.2 294.4 268.8 294.4C256 294.4 243.2 281.6 243.2 268.8l0 0C243.2 256 256 243.2 268.8 243.2l486.4 0c12.8 0 25.6 12.8 25.6 25.6l0 0C780.8 281.6 768 294.4 755.2 294.4zM928 761.6c-12.8-12.8-32-12.8-38.4 0l-160 172.8-64-64c-12.8-12.8-32-12.8-38.4 0s-12.8 32 0 38.4l89.6 83.2c12.8 12.8 32 12.8 38.4 0l179.2-198.4C934.4 787.2 934.4 768 928 761.6z" p-id="2267" data-spm-anchor-id="a313x.7781069.0.i18" class="selected" fill="#ffffff"></path></svg>