<?xml version="1.0" standalone="no"?><!DOCTYPE svg PUBLIC "-//W3C//DTD SVG 1.1//EN" "http://www.w3.org/Graphics/SVG/1.1/DTD/svg11.dtd"><svg t="1611836384295" class="icon" viewBox="0 0 1024 1024" version="1.1" xmlns="http://www.w3.org/2000/svg" p-id="5714" xmlns:xlink="http://www.w3.org/1999/xlink" width="200" height="200"><defs><style type="text/css"></style></defs><path d="M688.196267 356.272356 215.540622 175.069867c-18.386489-7.054222-36.443022 11.002311-29.3888 29.3888l181.202489 472.655644c5.893689 15.382756 25.691022 19.592533 37.341867 7.941689l62.828089-62.828089c8.886044-8.886044 23.290311-8.886044 32.176356 0l215.847822 215.847822c8.886044 8.886044 23.290311 8.886044 32.176356 0l102.172444-102.172444c8.886044-8.886044 8.886044-23.290311 0-32.176356L634.038044 487.901867c-8.886044-8.886044-8.886044-23.290311 0-32.176356l62.111289-62.111289C707.800178 381.963378 703.5904 362.177422 688.196267 356.272356z" p-id="5715" data-spm-anchor-id="a313x.7781069.0.i22" class="selected" fill="#ffffff"></path></svg>