<?xml version="1.0" standalone="no"?><!DOCTYPE svg PUBLIC "-//W3C//DTD SVG 1.1//EN" "http://www.w3.org/Graphics/SVG/1.1/DTD/svg11.dtd"><svg t="1612273526355" class="icon" viewBox="0 0 1024 1024" version="1.1" xmlns="http://www.w3.org/2000/svg" p-id="2987" xmlns:xlink="http://www.w3.org/1999/xlink" width="200" height="200"><defs><style type="text/css"></style></defs><path d="M864 64H160C107 64 64 107 64 160v704c0 53 43 96 96 96h704c53 0 96-43 96-96V160c0-53-43-96-96-96z m-12 800H172c-6.6 0-12-5.4-12-12V172c0-6.6 5.4-12 12-12h680c6.6 0 12 5.4 12 12v680c0 6.6-5.4 12-12 12z" p-id="2988" data-spm-anchor-id="a313x.7781069.0.i3" class="selected" fill="#ffffff"></path></svg>