<?xml version="1.0" standalone="no"?><!DOCTYPE svg PUBLIC "-//W3C//DTD SVG 1.1//EN" "http://www.w3.org/Graphics/SVG/1.1/DTD/svg11.dtd"><svg t="1612858999962" class="icon" viewBox="0 0 1024 1024" version="1.1" xmlns="http://www.w3.org/2000/svg" p-id="1847" xmlns:xlink="http://www.w3.org/1999/xlink" width="200" height="200"><defs><style type="text/css"></style></defs><path d="M768 896H256a160 160 0 0 1 0-320h512a160 160 0 0 1 0 320zM256 640a96 96 0 0 0 0 192h512a96 96 0 0 0 0-192z" fill="#ffffff" p-id="1848" data-spm-anchor-id="a313x.7781069.0.i2" class="selected"></path><path d="M128 608m128 0l128 0q128 0 128 128l0 0q0 128-128 128l-128 0q-128 0-128-128l0 0q0-128 128-128Z" fill="#ffffff" p-id="1849" data-spm-anchor-id="a313x.7781069.0.i0" class="selected"></path><path d="M384 896H256a160 160 0 0 1 0-320h128a160 160 0 0 1 0 320z m-128-256a96 96 0 0 0 0 192h128a96 96 0 0 0 0-192zM384 320a96 96 0 1 1 96-96 96 96 0 0 1-96 96z m0-128a32 32 0 1 0 32 32 32 32 0 0 0-32-32zM640 512a96 96 0 1 1 96-96 96 96 0 0 1-96 96z m0-128a32 32 0 1 0 32 32 32 32 0 0 0-32-32zM320 544a32 32 0 0 1-22.72-9.28 32 32 0 0 1 0-45.44l384-384a32 32 0 1 1 45.44 45.44l-384 384A32 32 0 0 1 320 544z" fill="#ffffff" p-id="1850" data-spm-anchor-id="a313x.7781069.0.i1" class="selected"></path></svg>